<svg xmlns="http://www.w3.org/2000/svg" width="96" height="96" viewBox="0 0 96 96"><g stroke="#0b0d14" stroke-width="2.2" stroke-linejoin="round" stroke-linecap="round"><path d="M48 2 q10 6 4 16 q-4 -8 -10 -8 z" fill="#aab2c8" stroke-width="2.2"/><path d="M10 66 c0 -14 10 -23 22 -23 h22 c9 0 15 5 18 11 l14 3 l-6 9 h-11 l-6 11 h-9 l3 -11 h-20 l-6 14 h-9 l4 -17 z" fill="#ffffff" stroke-width="2.2"/><circle cx="30" cy="34" r="9" fill="#dfe4f2" stroke-width="2.2"/><path d="M24 44 h16 l3 12 h-22 z" fill="#ffffff" stroke-width="2.2"/><rect x="22" y="26" width="5" height="12" rx="2" fill="#aab2c8" stroke-width="2.2"/><rect x="40" y="44" width="6" height="22" rx="2" fill="#aab2c8" stroke-width="2.2"/><path d="M46 66 l14 -10 l6 4 l-16 12 z" fill="#aab2c8" stroke-width="2.2"/><rect x="74" y="6" width="5" height="74" rx="2" fill="#aab2c8" stroke-width="2.2"/><path d="M76 2 l7 10 l-14 0 z" fill="#ffffff" stroke-width="2.2"/></g></svg>
